<mxfile host="Electron" modified="2024-02-01T14:15:04.459Z" agent="Mozilla/5.0 (Windows NT 10.0; Win64; x64) AppleWebKit/537.36 (KHTML, like Gecko) draw.io/23.0.2 Chrome/120.0.6099.109 Electron/28.1.0 Safari/537.36" etag="HYIpmDBqAdIB3-__Olyb" version="23.0.2" type="device">
  <diagram name="Page-1" id="2YBvvXClWsGukQMizWep">
    <mxGraphModel dx="2463" dy="776" grid="1" gridSize="10" guides="1" tooltips="1" connect="1" arrows="1" fold="1" page="1" pageScale="1" pageWidth="850" pageHeight="1100" math="0" shadow="0">
      <root>
        <mxCell id="0" />
        <mxCell id="1" parent="0" />
        <mxCell id="mgE-LHDEuEIPtLl88l7N-12" value="" style="rounded=0;whiteSpace=wrap;html=1;" parent="1" vertex="1">
          <mxGeometry x="-10" y="1585" width="400" height="135" as="geometry" />
        </mxCell>
        <mxCell id="Uiv5kVRZpSyaVhB4euI4-112" value="" style="rounded=0;whiteSpace=wrap;html=1;" parent="1" vertex="1">
          <mxGeometry x="210" y="1080" width="390" height="100" as="geometry" />
        </mxCell>
        <mxCell id="Uiv5kVRZpSyaVhB4euI4-25" value="" style="rounded=0;whiteSpace=wrap;html=1;" parent="1" vertex="1">
          <mxGeometry x="10" y="290" width="570" height="100" as="geometry" />
        </mxCell>
        <mxCell id="Uiv5kVRZpSyaVhB4euI4-23" value="" style="rounded=0;whiteSpace=wrap;html=1;" parent="1" vertex="1">
          <mxGeometry x="10" y="160" width="570" height="130" as="geometry" />
        </mxCell>
        <mxCell id="aM9ryv3xv72pqoxQDRHE-1" value="User" style="shape=umlLifeline;perimeter=lifelinePerimeter;whiteSpace=wrap;html=1;container=0;dropTarget=0;collapsible=0;recursiveResize=0;outlineConnect=0;portConstraint=eastwest;newEdgeStyle={&quot;edgeStyle&quot;:&quot;elbowEdgeStyle&quot;,&quot;elbow&quot;:&quot;vertical&quot;,&quot;curved&quot;:0,&quot;rounded&quot;:0};" parent="1" vertex="1">
          <mxGeometry x="40" y="40" width="100" height="350" as="geometry" />
        </mxCell>
        <mxCell id="aM9ryv3xv72pqoxQDRHE-2" value="" style="html=1;points=[];perimeter=orthogonalPerimeter;outlineConnect=0;targetShapes=umlLifeline;portConstraint=eastwest;newEdgeStyle={&quot;edgeStyle&quot;:&quot;elbowEdgeStyle&quot;,&quot;elbow&quot;:&quot;vertical&quot;,&quot;curved&quot;:0,&quot;rounded&quot;:0};" parent="aM9ryv3xv72pqoxQDRHE-1" vertex="1">
          <mxGeometry x="45" y="70" width="15" height="240" as="geometry" />
        </mxCell>
        <mxCell id="aM9ryv3xv72pqoxQDRHE-5" value="server" style="shape=umlLifeline;perimeter=lifelinePerimeter;whiteSpace=wrap;html=1;container=0;dropTarget=0;collapsible=0;recursiveResize=0;outlineConnect=0;portConstraint=eastwest;newEdgeStyle={&quot;edgeStyle&quot;:&quot;elbowEdgeStyle&quot;,&quot;elbow&quot;:&quot;vertical&quot;,&quot;curved&quot;:0,&quot;rounded&quot;:0};" parent="1" vertex="1">
          <mxGeometry x="340" y="40" width="100" height="340" as="geometry" />
        </mxCell>
        <mxCell id="aM9ryv3xv72pqoxQDRHE-6" value="" style="html=1;points=[];perimeter=orthogonalPerimeter;outlineConnect=0;targetShapes=umlLifeline;portConstraint=eastwest;newEdgeStyle={&quot;edgeStyle&quot;:&quot;elbowEdgeStyle&quot;,&quot;elbow&quot;:&quot;vertical&quot;,&quot;curved&quot;:0,&quot;rounded&quot;:0};" parent="aM9ryv3xv72pqoxQDRHE-5" vertex="1">
          <mxGeometry x="45" y="80" width="10" height="210" as="geometry" />
        </mxCell>
        <mxCell id="Uiv5kVRZpSyaVhB4euI4-7" value="" style="endArrow=classic;html=1;rounded=0;" parent="aM9ryv3xv72pqoxQDRHE-5" source="aM9ryv3xv72pqoxQDRHE-6" target="aM9ryv3xv72pqoxQDRHE-6" edge="1">
          <mxGeometry width="50" height="50" relative="1" as="geometry">
            <mxPoint x="40" y="170" as="sourcePoint" />
            <mxPoint x="90" y="120" as="targetPoint" />
          </mxGeometry>
        </mxCell>
        <mxCell id="aM9ryv3xv72pqoxQDRHE-7" value="1. login(email, password)" style="html=1;verticalAlign=bottom;endArrow=block;edgeStyle=elbowEdgeStyle;elbow=vertical;curved=0;rounded=0;" parent="1" source="aM9ryv3xv72pqoxQDRHE-2" target="aM9ryv3xv72pqoxQDRHE-6" edge="1">
          <mxGeometry relative="1" as="geometry">
            <mxPoint x="195" y="130" as="sourcePoint" />
            <Array as="points">
              <mxPoint x="180" y="120" />
            </Array>
          </mxGeometry>
        </mxCell>
        <mxCell id="aM9ryv3xv72pqoxQDRHE-8" value="Ack" style="html=1;verticalAlign=bottom;endArrow=open;dashed=1;endSize=8;edgeStyle=elbowEdgeStyle;elbow=vertical;curved=0;rounded=0;" parent="1" edge="1">
          <mxGeometry relative="1" as="geometry">
            <mxPoint x="100" y="240" as="targetPoint" />
            <Array as="points">
              <mxPoint x="195" y="240" />
            </Array>
            <mxPoint x="390" y="240" as="sourcePoint" />
          </mxGeometry>
        </mxCell>
        <mxCell id="Uiv5kVRZpSyaVhB4euI4-1" value="User Login" style="text;strokeColor=none;fillColor=none;spacingLeft=4;spacingRight=4;overflow=hidden;rotatable=0;points=[[0,0.5],[1,0.5]];portConstraint=eastwest;fontSize=12;whiteSpace=wrap;html=1;" parent="1" vertex="1">
          <mxGeometry x="-80" width="80" height="30" as="geometry" />
        </mxCell>
        <mxCell id="Uiv5kVRZpSyaVhB4euI4-2" value="DB" style="shape=umlLifeline;perimeter=lifelinePerimeter;whiteSpace=wrap;html=1;container=0;dropTarget=0;collapsible=0;recursiveResize=0;outlineConnect=0;portConstraint=eastwest;newEdgeStyle={&quot;edgeStyle&quot;:&quot;elbowEdgeStyle&quot;,&quot;elbow&quot;:&quot;vertical&quot;,&quot;curved&quot;:0,&quot;rounded&quot;:0};" parent="1" vertex="1">
          <mxGeometry x="510" y="40" width="100" height="360" as="geometry" />
        </mxCell>
        <mxCell id="Uiv5kVRZpSyaVhB4euI4-3" value="" style="html=1;points=[];perimeter=orthogonalPerimeter;outlineConnect=0;targetShapes=umlLifeline;portConstraint=eastwest;newEdgeStyle={&quot;edgeStyle&quot;:&quot;elbowEdgeStyle&quot;,&quot;elbow&quot;:&quot;vertical&quot;,&quot;curved&quot;:0,&quot;rounded&quot;:0};" parent="Uiv5kVRZpSyaVhB4euI4-2" vertex="1">
          <mxGeometry x="45" y="80" width="10" height="220" as="geometry" />
        </mxCell>
        <mxCell id="Uiv5kVRZpSyaVhB4euI4-4" value="1. validate(email, password)" style="html=1;verticalAlign=bottom;endArrow=block;edgeStyle=elbowEdgeStyle;elbow=vertical;curved=0;rounded=0;" parent="1" source="aM9ryv3xv72pqoxQDRHE-5" target="Uiv5kVRZpSyaVhB4euI4-3" edge="1">
          <mxGeometry relative="1" as="geometry">
            <mxPoint x="410" y="140" as="sourcePoint" />
            <Array as="points">
              <mxPoint x="495" y="140" />
            </Array>
            <mxPoint x="700" y="140" as="targetPoint" />
          </mxGeometry>
        </mxCell>
        <mxCell id="Uiv5kVRZpSyaVhB4euI4-8" value="login(clientID)" style="text;html=1;strokeColor=none;fillColor=none;align=center;verticalAlign=middle;whiteSpace=wrap;rounded=0;" parent="1" vertex="1">
          <mxGeometry x="425" y="190" width="60" height="30" as="geometry" />
        </mxCell>
        <mxCell id="Uiv5kVRZpSyaVhB4euI4-9" value="clientID" style="html=1;verticalAlign=bottom;endArrow=open;dashed=1;endSize=8;edgeStyle=elbowEdgeStyle;elbow=vertical;curved=0;rounded=0;" parent="1" source="Uiv5kVRZpSyaVhB4euI4-3" target="aM9ryv3xv72pqoxQDRHE-6" edge="1">
          <mxGeometry relative="1" as="geometry">
            <mxPoint x="645" y="180" as="targetPoint" />
            <Array as="points">
              <mxPoint x="440" y="180" />
            </Array>
            <mxPoint x="360" y="180" as="sourcePoint" />
          </mxGeometry>
        </mxCell>
        <mxCell id="Uiv5kVRZpSyaVhB4euI4-24" value="Ack" style="text;html=1;strokeColor=none;fillColor=none;align=center;verticalAlign=middle;whiteSpace=wrap;rounded=0;" parent="1" vertex="1">
          <mxGeometry y="160" width="60" height="30" as="geometry" />
        </mxCell>
        <mxCell id="Uiv5kVRZpSyaVhB4euI4-26" value="&lt;u&gt;Succesfull login&lt;/u&gt;" style="text;html=1;strokeColor=none;fillColor=none;align=center;verticalAlign=middle;whiteSpace=wrap;rounded=0;" parent="1" vertex="1">
          <mxGeometry x="200" y="160" width="110" height="30" as="geometry" />
        </mxCell>
        <mxCell id="Uiv5kVRZpSyaVhB4euI4-27" value="&lt;u&gt;Failed login&lt;/u&gt;" style="text;html=1;strokeColor=none;fillColor=none;align=center;verticalAlign=middle;whiteSpace=wrap;rounded=0;" parent="1" vertex="1">
          <mxGeometry x="200" y="290" width="110" height="30" as="geometry" />
        </mxCell>
        <mxCell id="Uiv5kVRZpSyaVhB4euI4-28" value="errorMsg" style="html=1;verticalAlign=bottom;endArrow=open;dashed=1;endSize=8;edgeStyle=elbowEdgeStyle;elbow=vertical;curved=0;rounded=0;" parent="1" edge="1">
          <mxGeometry relative="1" as="geometry">
            <mxPoint x="400" y="320" as="targetPoint" />
            <Array as="points">
              <mxPoint x="445" y="320" />
            </Array>
            <mxPoint x="560" y="320" as="sourcePoint" />
          </mxGeometry>
        </mxCell>
        <mxCell id="Uiv5kVRZpSyaVhB4euI4-29" value="errorMsg" style="html=1;verticalAlign=bottom;endArrow=open;dashed=1;endSize=8;edgeStyle=elbowEdgeStyle;elbow=vertical;curved=0;rounded=0;entryX=0.175;entryY=0.495;entryDx=0;entryDy=0;entryPerimeter=0;" parent="1" target="Uiv5kVRZpSyaVhB4euI4-25" edge="1">
          <mxGeometry relative="1" as="geometry">
            <mxPoint x="225" y="339.5" as="targetPoint" />
            <Array as="points">
              <mxPoint x="270" y="339.5" />
            </Array>
            <mxPoint x="385" y="339.5" as="sourcePoint" />
          </mxGeometry>
        </mxCell>
        <mxCell id="Uiv5kVRZpSyaVhB4euI4-49" value="" style="rounded=0;whiteSpace=wrap;html=1;" parent="1" vertex="1">
          <mxGeometry y="770" width="570" height="100" as="geometry" />
        </mxCell>
        <mxCell id="Uiv5kVRZpSyaVhB4euI4-50" value="" style="rounded=0;whiteSpace=wrap;html=1;" parent="1" vertex="1">
          <mxGeometry y="640" width="570" height="130" as="geometry" />
        </mxCell>
        <mxCell id="Uiv5kVRZpSyaVhB4euI4-51" value="User" style="shape=umlLifeline;perimeter=lifelinePerimeter;whiteSpace=wrap;html=1;container=0;dropTarget=0;collapsible=0;recursiveResize=0;outlineConnect=0;portConstraint=eastwest;newEdgeStyle={&quot;edgeStyle&quot;:&quot;elbowEdgeStyle&quot;,&quot;elbow&quot;:&quot;vertical&quot;,&quot;curved&quot;:0,&quot;rounded&quot;:0};" parent="1" vertex="1">
          <mxGeometry x="30" y="520" width="100" height="350" as="geometry" />
        </mxCell>
        <mxCell id="Uiv5kVRZpSyaVhB4euI4-52" value="" style="html=1;points=[];perimeter=orthogonalPerimeter;outlineConnect=0;targetShapes=umlLifeline;portConstraint=eastwest;newEdgeStyle={&quot;edgeStyle&quot;:&quot;elbowEdgeStyle&quot;,&quot;elbow&quot;:&quot;vertical&quot;,&quot;curved&quot;:0,&quot;rounded&quot;:0};" parent="Uiv5kVRZpSyaVhB4euI4-51" vertex="1">
          <mxGeometry x="45" y="70" width="15" height="240" as="geometry" />
        </mxCell>
        <mxCell id="Uiv5kVRZpSyaVhB4euI4-53" value="server" style="shape=umlLifeline;perimeter=lifelinePerimeter;whiteSpace=wrap;html=1;container=0;dropTarget=0;collapsible=0;recursiveResize=0;outlineConnect=0;portConstraint=eastwest;newEdgeStyle={&quot;edgeStyle&quot;:&quot;elbowEdgeStyle&quot;,&quot;elbow&quot;:&quot;vertical&quot;,&quot;curved&quot;:0,&quot;rounded&quot;:0};" parent="1" vertex="1">
          <mxGeometry x="330" y="520" width="100" height="340" as="geometry" />
        </mxCell>
        <mxCell id="Uiv5kVRZpSyaVhB4euI4-54" value="" style="html=1;points=[];perimeter=orthogonalPerimeter;outlineConnect=0;targetShapes=umlLifeline;portConstraint=eastwest;newEdgeStyle={&quot;edgeStyle&quot;:&quot;elbowEdgeStyle&quot;,&quot;elbow&quot;:&quot;vertical&quot;,&quot;curved&quot;:0,&quot;rounded&quot;:0};" parent="Uiv5kVRZpSyaVhB4euI4-53" vertex="1">
          <mxGeometry x="45" y="80" width="10" height="210" as="geometry" />
        </mxCell>
        <mxCell id="Uiv5kVRZpSyaVhB4euI4-55" value="" style="endArrow=classic;html=1;rounded=0;" parent="Uiv5kVRZpSyaVhB4euI4-53" source="Uiv5kVRZpSyaVhB4euI4-54" target="Uiv5kVRZpSyaVhB4euI4-54" edge="1">
          <mxGeometry width="50" height="50" relative="1" as="geometry">
            <mxPoint x="40" y="170" as="sourcePoint" />
            <mxPoint x="90" y="120" as="targetPoint" />
          </mxGeometry>
        </mxCell>
        <mxCell id="Uiv5kVRZpSyaVhB4euI4-56" value="1. register(email, password, role)" style="html=1;verticalAlign=bottom;endArrow=block;edgeStyle=elbowEdgeStyle;elbow=vertical;curved=0;rounded=0;" parent="1" source="Uiv5kVRZpSyaVhB4euI4-52" target="Uiv5kVRZpSyaVhB4euI4-54" edge="1">
          <mxGeometry relative="1" as="geometry">
            <mxPoint x="185" y="610" as="sourcePoint" />
            <Array as="points">
              <mxPoint x="170" y="600" />
            </Array>
          </mxGeometry>
        </mxCell>
        <mxCell id="Uiv5kVRZpSyaVhB4euI4-57" value="Ack" style="html=1;verticalAlign=bottom;endArrow=open;dashed=1;endSize=8;edgeStyle=elbowEdgeStyle;elbow=vertical;curved=0;rounded=0;" parent="1" edge="1">
          <mxGeometry relative="1" as="geometry">
            <mxPoint x="90" y="720" as="targetPoint" />
            <Array as="points">
              <mxPoint x="185" y="720" />
            </Array>
            <mxPoint x="380" y="720" as="sourcePoint" />
          </mxGeometry>
        </mxCell>
        <mxCell id="Uiv5kVRZpSyaVhB4euI4-58" value="DB" style="shape=umlLifeline;perimeter=lifelinePerimeter;whiteSpace=wrap;html=1;container=0;dropTarget=0;collapsible=0;recursiveResize=0;outlineConnect=0;portConstraint=eastwest;newEdgeStyle={&quot;edgeStyle&quot;:&quot;elbowEdgeStyle&quot;,&quot;elbow&quot;:&quot;vertical&quot;,&quot;curved&quot;:0,&quot;rounded&quot;:0};" parent="1" vertex="1">
          <mxGeometry x="500" y="520" width="100" height="360" as="geometry" />
        </mxCell>
        <mxCell id="Uiv5kVRZpSyaVhB4euI4-59" value="" style="html=1;points=[];perimeter=orthogonalPerimeter;outlineConnect=0;targetShapes=umlLifeline;portConstraint=eastwest;newEdgeStyle={&quot;edgeStyle&quot;:&quot;elbowEdgeStyle&quot;,&quot;elbow&quot;:&quot;vertical&quot;,&quot;curved&quot;:0,&quot;rounded&quot;:0};" parent="Uiv5kVRZpSyaVhB4euI4-58" vertex="1">
          <mxGeometry x="45" y="80" width="10" height="220" as="geometry" />
        </mxCell>
        <mxCell id="Uiv5kVRZpSyaVhB4euI4-60" value="1. validate(email, password)" style="html=1;verticalAlign=bottom;endArrow=block;edgeStyle=elbowEdgeStyle;elbow=vertical;curved=0;rounded=0;" parent="1" source="Uiv5kVRZpSyaVhB4euI4-53" target="Uiv5kVRZpSyaVhB4euI4-59" edge="1">
          <mxGeometry relative="1" as="geometry">
            <mxPoint x="400" y="620" as="sourcePoint" />
            <Array as="points">
              <mxPoint x="485" y="620" />
            </Array>
            <mxPoint x="690" y="620" as="targetPoint" />
          </mxGeometry>
        </mxCell>
        <mxCell id="Uiv5kVRZpSyaVhB4euI4-61" value="login(clientID)" style="text;html=1;strokeColor=none;fillColor=none;align=center;verticalAlign=middle;whiteSpace=wrap;rounded=0;" parent="1" vertex="1">
          <mxGeometry x="415" y="690" width="60" height="30" as="geometry" />
        </mxCell>
        <mxCell id="Uiv5kVRZpSyaVhB4euI4-62" value="clientID" style="html=1;verticalAlign=bottom;endArrow=open;dashed=1;endSize=8;edgeStyle=elbowEdgeStyle;elbow=vertical;curved=0;rounded=0;" parent="1" source="Uiv5kVRZpSyaVhB4euI4-59" target="Uiv5kVRZpSyaVhB4euI4-54" edge="1">
          <mxGeometry relative="1" as="geometry">
            <mxPoint x="635" y="660" as="targetPoint" />
            <Array as="points">
              <mxPoint x="430" y="660" />
            </Array>
            <mxPoint x="350" y="660" as="sourcePoint" />
          </mxGeometry>
        </mxCell>
        <mxCell id="Uiv5kVRZpSyaVhB4euI4-63" value="Ack" style="text;html=1;strokeColor=none;fillColor=none;align=center;verticalAlign=middle;whiteSpace=wrap;rounded=0;" parent="1" vertex="1">
          <mxGeometry x="-10" y="640" width="60" height="30" as="geometry" />
        </mxCell>
        <mxCell id="Uiv5kVRZpSyaVhB4euI4-64" value="&lt;u&gt;Succesfull Registration&lt;/u&gt;" style="text;html=1;strokeColor=none;fillColor=none;align=center;verticalAlign=middle;whiteSpace=wrap;rounded=0;" parent="1" vertex="1">
          <mxGeometry x="190" y="640" width="130" height="30" as="geometry" />
        </mxCell>
        <mxCell id="Uiv5kVRZpSyaVhB4euI4-65" value="&lt;u&gt;Failed&amp;nbsp;&lt;/u&gt;&lt;u style=&quot;border-color: var(--border-color);&quot;&gt;Registration&lt;/u&gt;" style="text;html=1;strokeColor=none;fillColor=none;align=center;verticalAlign=middle;whiteSpace=wrap;rounded=0;" parent="1" vertex="1">
          <mxGeometry x="190" y="770" width="110" height="30" as="geometry" />
        </mxCell>
        <mxCell id="Uiv5kVRZpSyaVhB4euI4-66" value="errorMsg" style="html=1;verticalAlign=bottom;endArrow=open;dashed=1;endSize=8;edgeStyle=elbowEdgeStyle;elbow=vertical;curved=0;rounded=0;" parent="1" edge="1">
          <mxGeometry relative="1" as="geometry">
            <mxPoint x="390" y="800" as="targetPoint" />
            <Array as="points">
              <mxPoint x="435" y="800" />
            </Array>
            <mxPoint x="550" y="800" as="sourcePoint" />
          </mxGeometry>
        </mxCell>
        <mxCell id="Uiv5kVRZpSyaVhB4euI4-67" value="errorMsg" style="html=1;verticalAlign=bottom;endArrow=open;dashed=1;endSize=8;edgeStyle=elbowEdgeStyle;elbow=vertical;curved=0;rounded=0;entryX=0.175;entryY=0.495;entryDx=0;entryDy=0;entryPerimeter=0;" parent="1" target="Uiv5kVRZpSyaVhB4euI4-49" edge="1">
          <mxGeometry relative="1" as="geometry">
            <mxPoint x="215" y="819.5" as="targetPoint" />
            <Array as="points">
              <mxPoint x="260" y="819.5" />
            </Array>
            <mxPoint x="375" y="819.5" as="sourcePoint" />
          </mxGeometry>
        </mxCell>
        <mxCell id="Uiv5kVRZpSyaVhB4euI4-68" value="&lt;span style=&quot;color: rgb(0, 0, 0); font-family: Helvetica; font-size: 12px; font-style: normal; font-variant-ligatures: normal; font-variant-caps: normal; font-weight: 400; letter-spacing: normal; orphans: 2; text-align: left; text-indent: 0px; text-transform: none; widows: 2; word-spacing: 0px; -webkit-text-stroke-width: 0px; background-color: rgb(251, 251, 251); text-decoration-thickness: initial; text-decoration-style: initial; text-decoration-color: initial; float: none; display: inline !important;&quot;&gt;User Registration&lt;/span&gt;" style="text;whiteSpace=wrap;html=1;" parent="1" vertex="1">
          <mxGeometry x="-70" y="490" width="110" height="40" as="geometry" />
        </mxCell>
        <mxCell id="Uiv5kVRZpSyaVhB4euI4-69" value="1. register(email, password, role)" style="html=1;verticalAlign=bottom;endArrow=block;edgeStyle=elbowEdgeStyle;elbow=vertical;curved=0;rounded=0;" parent="1" source="Uiv5kVRZpSyaVhB4euI4-54" target="Uiv5kVRZpSyaVhB4euI4-59" edge="1">
          <mxGeometry relative="1" as="geometry">
            <mxPoint x="410" y="680" as="sourcePoint" />
            <Array as="points">
              <mxPoint x="460" y="680" />
            </Array>
            <mxPoint x="520" y="680" as="targetPoint" />
          </mxGeometry>
        </mxCell>
        <mxCell id="Uiv5kVRZpSyaVhB4euI4-93" value="Phone" style="shape=umlLifeline;perimeter=lifelinePerimeter;whiteSpace=wrap;html=1;container=0;dropTarget=0;collapsible=0;recursiveResize=0;outlineConnect=0;portConstraint=eastwest;newEdgeStyle={&quot;edgeStyle&quot;:&quot;elbowEdgeStyle&quot;,&quot;elbow&quot;:&quot;vertical&quot;,&quot;curved&quot;:0,&quot;rounded&quot;:0};" parent="1" vertex="1">
          <mxGeometry x="20" y="1020" width="100" height="350" as="geometry" />
        </mxCell>
        <mxCell id="Uiv5kVRZpSyaVhB4euI4-94" value="" style="html=1;points=[];perimeter=orthogonalPerimeter;outlineConnect=0;targetShapes=umlLifeline;portConstraint=eastwest;newEdgeStyle={&quot;edgeStyle&quot;:&quot;elbowEdgeStyle&quot;,&quot;elbow&quot;:&quot;vertical&quot;,&quot;curved&quot;:0,&quot;rounded&quot;:0};" parent="Uiv5kVRZpSyaVhB4euI4-93" vertex="1">
          <mxGeometry x="45" y="70" width="15" height="240" as="geometry" />
        </mxCell>
        <mxCell id="Uiv5kVRZpSyaVhB4euI4-95" value="User" style="shape=umlLifeline;perimeter=lifelinePerimeter;whiteSpace=wrap;html=1;container=0;dropTarget=0;collapsible=0;recursiveResize=0;outlineConnect=0;portConstraint=eastwest;newEdgeStyle={&quot;edgeStyle&quot;:&quot;elbowEdgeStyle&quot;,&quot;elbow&quot;:&quot;vertical&quot;,&quot;curved&quot;:0,&quot;rounded&quot;:0};" parent="1" vertex="1">
          <mxGeometry x="320" y="1020" width="100" height="340" as="geometry" />
        </mxCell>
        <mxCell id="Uiv5kVRZpSyaVhB4euI4-96" value="" style="html=1;points=[];perimeter=orthogonalPerimeter;outlineConnect=0;targetShapes=umlLifeline;portConstraint=eastwest;newEdgeStyle={&quot;edgeStyle&quot;:&quot;elbowEdgeStyle&quot;,&quot;elbow&quot;:&quot;vertical&quot;,&quot;curved&quot;:0,&quot;rounded&quot;:0};" parent="Uiv5kVRZpSyaVhB4euI4-95" vertex="1">
          <mxGeometry x="45" y="80" width="10" height="210" as="geometry" />
        </mxCell>
        <mxCell id="Uiv5kVRZpSyaVhB4euI4-98" value="incomingCall" style="html=1;verticalAlign=bottom;endArrow=block;edgeStyle=elbowEdgeStyle;elbow=vertical;curved=0;rounded=0;" parent="1" edge="1">
          <mxGeometry relative="1" as="geometry">
            <mxPoint x="80" y="1199.58" as="sourcePoint" />
            <Array as="points">
              <mxPoint x="160" y="1199.58" />
            </Array>
            <mxPoint x="365" y="1199.58" as="targetPoint" />
            <mxPoint as="offset" />
          </mxGeometry>
        </mxCell>
        <mxCell id="Uiv5kVRZpSyaVhB4euI4-100" value="server" style="shape=umlLifeline;perimeter=lifelinePerimeter;whiteSpace=wrap;html=1;container=0;dropTarget=0;collapsible=0;recursiveResize=0;outlineConnect=0;portConstraint=eastwest;newEdgeStyle={&quot;edgeStyle&quot;:&quot;elbowEdgeStyle&quot;,&quot;elbow&quot;:&quot;vertical&quot;,&quot;curved&quot;:0,&quot;rounded&quot;:0};" parent="1" vertex="1">
          <mxGeometry x="490" y="1020" width="100" height="340" as="geometry" />
        </mxCell>
        <mxCell id="Uiv5kVRZpSyaVhB4euI4-101" value="" style="html=1;points=[];perimeter=orthogonalPerimeter;outlineConnect=0;targetShapes=umlLifeline;portConstraint=eastwest;newEdgeStyle={&quot;edgeStyle&quot;:&quot;elbowEdgeStyle&quot;,&quot;elbow&quot;:&quot;vertical&quot;,&quot;curved&quot;:0,&quot;rounded&quot;:0};" parent="Uiv5kVRZpSyaVhB4euI4-100" vertex="1">
          <mxGeometry x="45" y="80" width="10" height="220" as="geometry" />
        </mxCell>
        <mxCell id="Uiv5kVRZpSyaVhB4euI4-110" value="&lt;span style=&quot;color: rgb(0, 0, 0); font-family: Helvetica; font-size: 12px; font-style: normal; font-variant-ligatures: normal; font-variant-caps: normal; font-weight: 400; letter-spacing: normal; orphans: 2; text-align: left; text-indent: 0px; text-transform: none; widows: 2; word-spacing: 0px; -webkit-text-stroke-width: 0px; background-color: rgb(251, 251, 251); text-decoration-thickness: initial; text-decoration-style: initial; text-decoration-color: initial; float: none; display: inline !important;&quot;&gt;Incoming Call&lt;/span&gt;" style="text;whiteSpace=wrap;html=1;" parent="1" vertex="1">
          <mxGeometry x="-80" y="990" width="110" height="40" as="geometry" />
        </mxCell>
        <mxCell id="Uiv5kVRZpSyaVhB4euI4-113" value="*every 2 minutes" style="text;html=1;strokeColor=none;fillColor=none;align=center;verticalAlign=middle;whiteSpace=wrap;rounded=0;" parent="1" vertex="1">
          <mxGeometry x="210" y="1080" width="100" height="30" as="geometry" />
        </mxCell>
        <mxCell id="Uiv5kVRZpSyaVhB4euI4-114" value="snapShot" style="html=1;verticalAlign=bottom;endArrow=block;edgeStyle=elbowEdgeStyle;elbow=vertical;curved=0;rounded=0;" parent="1" target="Uiv5kVRZpSyaVhB4euI4-101" edge="1">
          <mxGeometry relative="1" as="geometry">
            <mxPoint x="380" y="1110" as="sourcePoint" />
            <Array as="points">
              <mxPoint x="535" y="1110" />
            </Array>
            <mxPoint x="740" y="1110" as="targetPoint" />
            <mxPoint as="offset" />
          </mxGeometry>
        </mxCell>
        <mxCell id="Uiv5kVRZpSyaVhB4euI4-115" value="Ack" style="html=1;verticalAlign=bottom;endArrow=open;dashed=1;endSize=8;edgeStyle=elbowEdgeStyle;elbow=vertical;curved=0;rounded=0;" parent="1" source="Uiv5kVRZpSyaVhB4euI4-101" target="Uiv5kVRZpSyaVhB4euI4-96" edge="1">
          <mxGeometry relative="1" as="geometry">
            <mxPoint x="252.38" y="1140" as="targetPoint" />
            <Array as="points">
              <mxPoint x="412.63" y="1140" />
            </Array>
            <mxPoint x="527.63" y="1140" as="sourcePoint" />
          </mxGeometry>
        </mxCell>
        <mxCell id="Uiv5kVRZpSyaVhB4euI4-116" value="freeze" style="html=1;verticalAlign=bottom;endArrow=block;edgeStyle=elbowEdgeStyle;elbow=vertical;curved=0;rounded=0;" parent="1" source="Uiv5kVRZpSyaVhB4euI4-95" target="Uiv5kVRZpSyaVhB4euI4-100" edge="1">
          <mxGeometry relative="1" as="geometry">
            <mxPoint x="397.5" y="1240" as="sourcePoint" />
            <Array as="points">
              <mxPoint x="477.5" y="1240" />
            </Array>
            <mxPoint x="682.5" y="1240" as="targetPoint" />
            <mxPoint as="offset" />
          </mxGeometry>
        </mxCell>
        <mxCell id="Uiv5kVRZpSyaVhB4euI4-117" value="DisplayCall" style="html=1;verticalAlign=bottom;endArrow=block;edgeStyle=elbowEdgeStyle;elbow=vertical;curved=0;rounded=0;" parent="1" source="Uiv5kVRZpSyaVhB4euI4-95" target="Uiv5kVRZpSyaVhB4euI4-94" edge="1">
          <mxGeometry relative="1" as="geometry">
            <mxPoint x="70" y="1400" as="sourcePoint" />
            <Array as="points">
              <mxPoint x="210" y="1270" />
            </Array>
            <mxPoint x="355" y="1400" as="targetPoint" />
            <mxPoint as="offset" />
          </mxGeometry>
        </mxCell>
        <mxCell id="mgE-LHDEuEIPtLl88l7N-8" value="1. recordAndCompare" style="html=1;verticalAlign=bottom;endArrow=block;curved=0;rounded=0;" parent="1" edge="1">
          <mxGeometry width="80" relative="1" as="geometry">
            <mxPoint x="60" y="1530" as="sourcePoint" />
            <mxPoint x="279.5" y="1530" as="targetPoint" />
          </mxGeometry>
        </mxCell>
        <mxCell id="mgE-LHDEuEIPtLl88l7N-10" value="2.&amp;nbsp; chooseLevelNRecording" style="html=1;verticalAlign=bottom;endArrow=open;dashed=1;endSize=8;curved=0;rounded=0;" parent="1" edge="1">
          <mxGeometry relative="1" as="geometry">
            <mxPoint x="279.5" y="1560" as="sourcePoint" />
            <mxPoint x="60" y="1560" as="targetPoint" />
          </mxGeometry>
        </mxCell>
        <mxCell id="mgE-LHDEuEIPtLl88l7N-13" value="Loop" style="text;html=1;strokeColor=none;fillColor=none;align=center;verticalAlign=middle;whiteSpace=wrap;rounded=0;" parent="1" vertex="1">
          <mxGeometry x="-20" y="1580" width="60" height="30" as="geometry" />
        </mxCell>
        <mxCell id="mgE-LHDEuEIPtLl88l7N-14" value="RecordSample" style="html=1;verticalAlign=bottom;endArrow=block;curved=0;rounded=0;" parent="1" edge="1">
          <mxGeometry width="80" relative="1" as="geometry">
            <mxPoint x="60" y="1610" as="sourcePoint" />
            <mxPoint x="275" y="1610" as="targetPoint" />
          </mxGeometry>
        </mxCell>
        <mxCell id="mgE-LHDEuEIPtLl88l7N-16" value="Feedback" style="html=1;verticalAlign=bottom;endArrow=open;dashed=1;endSize=8;curved=0;rounded=0;" parent="1" edge="1">
          <mxGeometry relative="1" as="geometry">
            <mxPoint x="279.75" y="1680" as="sourcePoint" />
            <mxPoint x="60.25" y="1680" as="targetPoint" />
          </mxGeometry>
        </mxCell>
        <mxCell id="mgE-LHDEuEIPtLl88l7N-3" value="System" style="shape=umlLifeline;perimeter=lifelinePerimeter;whiteSpace=wrap;html=1;container=0;dropTarget=0;collapsible=0;recursiveResize=0;outlineConnect=0;portConstraint=eastwest;newEdgeStyle={&quot;edgeStyle&quot;:&quot;elbowEdgeStyle&quot;,&quot;elbow&quot;:&quot;vertical&quot;,&quot;curved&quot;:0,&quot;rounded&quot;:0};" parent="1" vertex="1">
          <mxGeometry x="230" y="1440" width="100" height="400" as="geometry" />
        </mxCell>
        <mxCell id="mgE-LHDEuEIPtLl88l7N-4" value="" style="html=1;points=[];perimeter=orthogonalPerimeter;outlineConnect=0;targetShapes=umlLifeline;portConstraint=eastwest;newEdgeStyle={&quot;edgeStyle&quot;:&quot;elbowEdgeStyle&quot;,&quot;elbow&quot;:&quot;vertical&quot;,&quot;curved&quot;:0,&quot;rounded&quot;:0};" parent="mgE-LHDEuEIPtLl88l7N-3" vertex="1">
          <mxGeometry x="45" y="70" width="15" height="290" as="geometry" />
        </mxCell>
        <mxCell id="mgE-LHDEuEIPtLl88l7N-15" value="CompareAndAnalyze" style="html=1;verticalAlign=bottom;endArrow=block;curved=0;rounded=0;" parent="mgE-LHDEuEIPtLl88l7N-3" source="mgE-LHDEuEIPtLl88l7N-4" target="mgE-LHDEuEIPtLl88l7N-4" edge="1">
          <mxGeometry x="0.3333" y="28" width="80" relative="1" as="geometry">
            <mxPoint x="60" y="190" as="sourcePoint" />
            <mxPoint x="220" y="190" as="targetPoint" />
            <mxPoint x="20" y="-8" as="offset" />
          </mxGeometry>
        </mxCell>
        <mxCell id="mgE-LHDEuEIPtLl88l7N-1" value="Student" style="shape=umlLifeline;perimeter=lifelinePerimeter;whiteSpace=wrap;html=1;container=0;dropTarget=0;collapsible=0;recursiveResize=0;outlineConnect=0;portConstraint=eastwest;newEdgeStyle={&quot;edgeStyle&quot;:&quot;elbowEdgeStyle&quot;,&quot;elbow&quot;:&quot;vertical&quot;,&quot;curved&quot;:0,&quot;rounded&quot;:0};" parent="1" vertex="1">
          <mxGeometry y="1440" width="100" height="410" as="geometry" />
        </mxCell>
        <mxCell id="mgE-LHDEuEIPtLl88l7N-2" value="" style="html=1;points=[];perimeter=orthogonalPerimeter;outlineConnect=0;targetShapes=umlLifeline;portConstraint=eastwest;newEdgeStyle={&quot;edgeStyle&quot;:&quot;elbowEdgeStyle&quot;,&quot;elbow&quot;:&quot;vertical&quot;,&quot;curved&quot;:0,&quot;rounded&quot;:0};" parent="mgE-LHDEuEIPtLl88l7N-1" vertex="1">
          <mxGeometry x="45" y="70" width="15" height="240" as="geometry" />
        </mxCell>
        <mxCell id="mgE-LHDEuEIPtLl88l7N-21" style="edgeStyle=orthogonalEdgeStyle;rounded=0;orthogonalLoop=1;jettySize=auto;html=1;exitX=0.5;exitY=1;exitDx=0;exitDy=0;" parent="1" source="mgE-LHDEuEIPtLl88l7N-12" target="mgE-LHDEuEIPtLl88l7N-12" edge="1">
          <mxGeometry relative="1" as="geometry" />
        </mxCell>
        <mxCell id="mgE-LHDEuEIPtLl88l7N-28" value="AnalyzeSessionFeedback" style="html=1;verticalAlign=bottom;endArrow=block;curved=0;rounded=0;" parent="1" source="mgE-LHDEuEIPtLl88l7N-4" edge="1">
          <mxGeometry x="0.1429" y="30" width="80" relative="1" as="geometry">
            <mxPoint x="350" y="1770" as="sourcePoint" />
            <mxPoint x="300" y="1770" as="targetPoint" />
            <Array as="points">
              <mxPoint x="350" y="1740" />
              <mxPoint x="350" y="1770" />
              <mxPoint x="330" y="1770" />
            </Array>
            <mxPoint as="offset" />
          </mxGeometry>
        </mxCell>
        <mxCell id="mgE-LHDEuEIPtLl88l7N-29" value="FinalFeedback" style="html=1;verticalAlign=bottom;endArrow=open;dashed=1;endSize=8;curved=0;rounded=0;" parent="1" source="mgE-LHDEuEIPtLl88l7N-3" edge="1">
          <mxGeometry relative="1" as="geometry">
            <mxPoint x="269.5" y="1820" as="sourcePoint" />
            <mxPoint x="50" y="1820" as="targetPoint" />
          </mxGeometry>
        </mxCell>
        <mxCell id="mgE-LHDEuEIPtLl88l7N-30" value="*every couple of seconds depends on the user level" style="text;html=1;align=center;verticalAlign=middle;resizable=0;points=[];autosize=1;strokeColor=none;fillColor=none;" parent="1" vertex="1">
          <mxGeometry x="-310" y="1600" width="300" height="30" as="geometry" />
        </mxCell>
        <mxCell id="mgE-LHDEuEIPtLl88l7N-31" value="Recording&lt;br/&gt;and Comparing Voice Samples" style="text;html=1;align=center;verticalAlign=middle;resizable=0;points=[];autosize=1;strokeColor=none;fillColor=none;" parent="1" vertex="1">
          <mxGeometry x="-210" y="1450" width="190" height="40" as="geometry" />
        </mxCell>
        <mxCell id="mgE-LHDEuEIPtLl88l7N-32" value="Student" style="shape=umlLifeline;perimeter=lifelinePerimeter;whiteSpace=wrap;html=1;container=0;dropTarget=0;collapsible=0;recursiveResize=0;outlineConnect=0;portConstraint=eastwest;newEdgeStyle={&quot;edgeStyle&quot;:&quot;elbowEdgeStyle&quot;,&quot;elbow&quot;:&quot;vertical&quot;,&quot;curved&quot;:0,&quot;rounded&quot;:0};" parent="1" vertex="1">
          <mxGeometry x="-20" y="1910" width="100" height="340" as="geometry" />
        </mxCell>
        <mxCell id="mgE-LHDEuEIPtLl88l7N-33" value="" style="html=1;points=[];perimeter=orthogonalPerimeter;outlineConnect=0;targetShapes=umlLifeline;portConstraint=eastwest;newEdgeStyle={&quot;edgeStyle&quot;:&quot;elbowEdgeStyle&quot;,&quot;elbow&quot;:&quot;vertical&quot;,&quot;curved&quot;:0,&quot;rounded&quot;:0};" parent="mgE-LHDEuEIPtLl88l7N-32" vertex="1">
          <mxGeometry x="45" y="70" width="15" height="240" as="geometry" />
        </mxCell>
        <mxCell id="mgE-LHDEuEIPtLl88l7N-34" value="System" style="shape=umlLifeline;perimeter=lifelinePerimeter;whiteSpace=wrap;html=1;container=0;dropTarget=0;collapsible=0;recursiveResize=0;outlineConnect=0;portConstraint=eastwest;newEdgeStyle={&quot;edgeStyle&quot;:&quot;elbowEdgeStyle&quot;,&quot;elbow&quot;:&quot;vertical&quot;,&quot;curved&quot;:0,&quot;rounded&quot;:0};" parent="1" vertex="1">
          <mxGeometry x="260" y="1910" width="100" height="310" as="geometry" />
        </mxCell>
        <mxCell id="mgE-LHDEuEIPtLl88l7N-35" value="" style="html=1;points=[];perimeter=orthogonalPerimeter;outlineConnect=0;targetShapes=umlLifeline;portConstraint=eastwest;newEdgeStyle={&quot;edgeStyle&quot;:&quot;elbowEdgeStyle&quot;,&quot;elbow&quot;:&quot;vertical&quot;,&quot;curved&quot;:0,&quot;rounded&quot;:0};" parent="mgE-LHDEuEIPtLl88l7N-34" vertex="1">
          <mxGeometry x="45" y="70" width="15" height="210" as="geometry" />
        </mxCell>
        <mxCell id="mgE-LHDEuEIPtLl88l7N-37" value="GetFeedbacks" style="html=1;verticalAlign=bottom;endArrow=block;curved=0;rounded=0;" parent="1" target="mgE-LHDEuEIPtLl88l7N-34" edge="1">
          <mxGeometry width="80" relative="1" as="geometry">
            <mxPoint x="30" y="2010" as="sourcePoint" />
            <mxPoint x="225.5" y="2010" as="targetPoint" />
          </mxGeometry>
        </mxCell>
        <mxCell id="mgE-LHDEuEIPtLl88l7N-38" value="SessionsList" style="html=1;verticalAlign=bottom;endArrow=open;dashed=1;endSize=8;curved=0;rounded=0;" parent="1" source="mgE-LHDEuEIPtLl88l7N-34" edge="1">
          <mxGeometry relative="1" as="geometry">
            <mxPoint x="270" y="2040" as="sourcePoint" />
            <mxPoint x="40" y="2040" as="targetPoint" />
          </mxGeometry>
        </mxCell>
        <mxCell id="mgE-LHDEuEIPtLl88l7N-39" value="ChooseSession" style="html=1;verticalAlign=bottom;endArrow=block;curved=0;rounded=0;" parent="1" target="mgE-LHDEuEIPtLl88l7N-34" edge="1">
          <mxGeometry width="80" relative="1" as="geometry">
            <mxPoint x="40" y="2070" as="sourcePoint" />
            <mxPoint x="280" y="2070" as="targetPoint" />
          </mxGeometry>
        </mxCell>
        <mxCell id="mgE-LHDEuEIPtLl88l7N-51" value="GetFeedback" style="html=1;verticalAlign=bottom;endArrow=block;curved=0;rounded=0;" parent="1" target="mgE-LHDEuEIPtLl88l7N-53" edge="1">
          <mxGeometry x="0.0062" width="80" relative="1" as="geometry">
            <mxPoint x="310" y="2100" as="sourcePoint" />
            <mxPoint x="490" y="2100" as="targetPoint" />
            <mxPoint as="offset" />
          </mxGeometry>
        </mxCell>
        <mxCell id="mgE-LHDEuEIPtLl88l7N-52" value="DetailedFeedback" style="html=1;verticalAlign=bottom;endArrow=open;dashed=1;endSize=8;curved=0;rounded=0;" parent="1" edge="1">
          <mxGeometry relative="1" as="geometry">
            <mxPoint x="310" y="2140" as="sourcePoint" />
            <mxPoint x="40" y="2140" as="targetPoint" />
          </mxGeometry>
        </mxCell>
        <mxCell id="mgE-LHDEuEIPtLl88l7N-53" value="DB" style="shape=umlLifeline;perimeter=lifelinePerimeter;whiteSpace=wrap;html=1;container=0;dropTarget=0;collapsible=0;recursiveResize=0;outlineConnect=0;portConstraint=eastwest;newEdgeStyle={&quot;edgeStyle&quot;:&quot;elbowEdgeStyle&quot;,&quot;elbow&quot;:&quot;vertical&quot;,&quot;curved&quot;:0,&quot;rounded&quot;:0};" parent="1" vertex="1">
          <mxGeometry x="470" y="1910" width="100" height="360" as="geometry" />
        </mxCell>
        <mxCell id="mgE-LHDEuEIPtLl88l7N-54" value="" style="html=1;points=[];perimeter=orthogonalPerimeter;outlineConnect=0;targetShapes=umlLifeline;portConstraint=eastwest;newEdgeStyle={&quot;edgeStyle&quot;:&quot;elbowEdgeStyle&quot;,&quot;elbow&quot;:&quot;vertical&quot;,&quot;curved&quot;:0,&quot;rounded&quot;:0};" parent="mgE-LHDEuEIPtLl88l7N-53" vertex="1">
          <mxGeometry x="45" y="80" width="10" height="220" as="geometry" />
        </mxCell>
        <mxCell id="mgE-LHDEuEIPtLl88l7N-55" value="DetailedFeedback" style="html=1;verticalAlign=bottom;endArrow=open;dashed=1;endSize=8;curved=0;rounded=0;" parent="1" edge="1">
          <mxGeometry relative="1" as="geometry">
            <mxPoint x="519.5" y="2130" as="sourcePoint" />
            <mxPoint x="320" y="2130" as="targetPoint" />
          </mxGeometry>
        </mxCell>
        <mxCell id="2Jf7o6wFnGI737Oco6ms-1" value="creating a class" style="text;html=1;align=center;verticalAlign=middle;resizable=0;points=[];autosize=1;strokeColor=none;fillColor=none;" vertex="1" parent="1">
          <mxGeometry x="-835" y="18" width="110" height="30" as="geometry" />
        </mxCell>
        <mxCell id="2Jf7o6wFnGI737Oco6ms-2" value="searching a class" style="text;html=1;align=center;verticalAlign=middle;resizable=0;points=[];autosize=1;strokeColor=none;fillColor=none;" vertex="1" parent="1">
          <mxGeometry x="-840" y="450" width="120" height="30" as="geometry" />
        </mxCell>
        <mxCell id="2Jf7o6wFnGI737Oco6ms-3" value="joining a class" style="text;html=1;align=center;verticalAlign=middle;resizable=0;points=[];autosize=1;strokeColor=none;fillColor=none;" vertex="1" parent="1">
          <mxGeometry x="-825" y="360" width="100" height="30" as="geometry" />
        </mxCell>
        <mxCell id="2Jf7o6wFnGI737Oco6ms-4" value="" style="rounded=0;whiteSpace=wrap;html=1;" vertex="1" parent="1">
          <mxGeometry x="-815" y="310" width="570" height="100" as="geometry" />
        </mxCell>
        <mxCell id="2Jf7o6wFnGI737Oco6ms-5" value="" style="rounded=0;whiteSpace=wrap;html=1;" vertex="1" parent="1">
          <mxGeometry x="-815" y="180" width="570" height="130" as="geometry" />
        </mxCell>
        <mxCell id="2Jf7o6wFnGI737Oco6ms-6" value="Teacher/Rabbi" style="shape=umlLifeline;perimeter=lifelinePerimeter;whiteSpace=wrap;html=1;container=0;dropTarget=0;collapsible=0;recursiveResize=0;outlineConnect=0;portConstraint=eastwest;newEdgeStyle={&quot;edgeStyle&quot;:&quot;elbowEdgeStyle&quot;,&quot;elbow&quot;:&quot;vertical&quot;,&quot;curved&quot;:0,&quot;rounded&quot;:0};" vertex="1" parent="1">
          <mxGeometry x="-785" y="60" width="100" height="350" as="geometry" />
        </mxCell>
        <mxCell id="2Jf7o6wFnGI737Oco6ms-7" value="" style="html=1;points=[];perimeter=orthogonalPerimeter;outlineConnect=0;targetShapes=umlLifeline;portConstraint=eastwest;newEdgeStyle={&quot;edgeStyle&quot;:&quot;elbowEdgeStyle&quot;,&quot;elbow&quot;:&quot;vertical&quot;,&quot;curved&quot;:0,&quot;rounded&quot;:0};" vertex="1" parent="2Jf7o6wFnGI737Oco6ms-6">
          <mxGeometry x="45" y="70" width="15" height="240" as="geometry" />
        </mxCell>
        <mxCell id="2Jf7o6wFnGI737Oco6ms-8" value="server" style="shape=umlLifeline;perimeter=lifelinePerimeter;whiteSpace=wrap;html=1;container=0;dropTarget=0;collapsible=0;recursiveResize=0;outlineConnect=0;portConstraint=eastwest;newEdgeStyle={&quot;edgeStyle&quot;:&quot;elbowEdgeStyle&quot;,&quot;elbow&quot;:&quot;vertical&quot;,&quot;curved&quot;:0,&quot;rounded&quot;:0};" vertex="1" parent="1">
          <mxGeometry x="-485" y="60" width="100" height="340" as="geometry" />
        </mxCell>
        <mxCell id="2Jf7o6wFnGI737Oco6ms-9" value="" style="html=1;points=[];perimeter=orthogonalPerimeter;outlineConnect=0;targetShapes=umlLifeline;portConstraint=eastwest;newEdgeStyle={&quot;edgeStyle&quot;:&quot;elbowEdgeStyle&quot;,&quot;elbow&quot;:&quot;vertical&quot;,&quot;curved&quot;:0,&quot;rounded&quot;:0};" vertex="1" parent="2Jf7o6wFnGI737Oco6ms-8">
          <mxGeometry x="45" y="80" width="10" height="210" as="geometry" />
        </mxCell>
        <mxCell id="2Jf7o6wFnGI737Oco6ms-10" value="" style="endArrow=classic;html=1;rounded=0;" edge="1" parent="2Jf7o6wFnGI737Oco6ms-8" source="2Jf7o6wFnGI737Oco6ms-9" target="2Jf7o6wFnGI737Oco6ms-9">
          <mxGeometry width="50" height="50" relative="1" as="geometry">
            <mxPoint x="40" y="170" as="sourcePoint" />
            <mxPoint x="90" y="120" as="targetPoint" />
          </mxGeometry>
        </mxCell>
        <mxCell id="2Jf7o6wFnGI737Oco6ms-11" value="1. createClass(name)" style="html=1;verticalAlign=bottom;endArrow=block;edgeStyle=elbowEdgeStyle;elbow=vertical;curved=0;rounded=0;" edge="1" parent="1" source="2Jf7o6wFnGI737Oco6ms-7" target="2Jf7o6wFnGI737Oco6ms-9">
          <mxGeometry relative="1" as="geometry">
            <mxPoint x="-630" y="150" as="sourcePoint" />
            <Array as="points">
              <mxPoint x="-645" y="140" />
            </Array>
            <mxPoint as="offset" />
          </mxGeometry>
        </mxCell>
        <mxCell id="2Jf7o6wFnGI737Oco6ms-12" value="classID" style="html=1;verticalAlign=bottom;endArrow=open;dashed=1;endSize=8;edgeStyle=elbowEdgeStyle;elbow=vertical;curved=0;rounded=0;" edge="1" parent="1">
          <mxGeometry relative="1" as="geometry">
            <mxPoint x="-725" y="260" as="targetPoint" />
            <Array as="points">
              <mxPoint x="-630" y="260" />
            </Array>
            <mxPoint x="-435" y="260" as="sourcePoint" />
          </mxGeometry>
        </mxCell>
        <mxCell id="2Jf7o6wFnGI737Oco6ms-13" value="DB" style="shape=umlLifeline;perimeter=lifelinePerimeter;whiteSpace=wrap;html=1;container=0;dropTarget=0;collapsible=0;recursiveResize=0;outlineConnect=0;portConstraint=eastwest;newEdgeStyle={&quot;edgeStyle&quot;:&quot;elbowEdgeStyle&quot;,&quot;elbow&quot;:&quot;vertical&quot;,&quot;curved&quot;:0,&quot;rounded&quot;:0};" vertex="1" parent="1">
          <mxGeometry x="-315" y="60" width="100" height="360" as="geometry" />
        </mxCell>
        <mxCell id="2Jf7o6wFnGI737Oco6ms-14" value="" style="html=1;points=[];perimeter=orthogonalPerimeter;outlineConnect=0;targetShapes=umlLifeline;portConstraint=eastwest;newEdgeStyle={&quot;edgeStyle&quot;:&quot;elbowEdgeStyle&quot;,&quot;elbow&quot;:&quot;vertical&quot;,&quot;curved&quot;:0,&quot;rounded&quot;:0};" vertex="1" parent="2Jf7o6wFnGI737Oco6ms-13">
          <mxGeometry x="45" y="80" width="10" height="220" as="geometry" />
        </mxCell>
        <mxCell id="2Jf7o6wFnGI737Oco6ms-15" value="1. validateName(name)" style="html=1;verticalAlign=bottom;endArrow=block;edgeStyle=elbowEdgeStyle;elbow=vertical;curved=0;rounded=0;" edge="1" parent="1" source="2Jf7o6wFnGI737Oco6ms-8" target="2Jf7o6wFnGI737Oco6ms-14">
          <mxGeometry relative="1" as="geometry">
            <mxPoint x="-415" y="160" as="sourcePoint" />
            <Array as="points">
              <mxPoint x="-330" y="160" />
            </Array>
            <mxPoint x="-125" y="160" as="targetPoint" />
          </mxGeometry>
        </mxCell>
        <mxCell id="2Jf7o6wFnGI737Oco6ms-16" value="createIdForClass()" style="text;html=1;strokeColor=none;fillColor=none;align=center;verticalAlign=middle;whiteSpace=wrap;rounded=0;" vertex="1" parent="1">
          <mxGeometry x="-400" y="210" width="60" height="30" as="geometry" />
        </mxCell>
        <mxCell id="2Jf7o6wFnGI737Oco6ms-17" value="Ack" style="html=1;verticalAlign=bottom;endArrow=open;dashed=1;endSize=8;edgeStyle=elbowEdgeStyle;elbow=vertical;curved=0;rounded=0;" edge="1" parent="1" source="2Jf7o6wFnGI737Oco6ms-14" target="2Jf7o6wFnGI737Oco6ms-9">
          <mxGeometry relative="1" as="geometry">
            <mxPoint x="-180" y="200" as="targetPoint" />
            <Array as="points">
              <mxPoint x="-385" y="200" />
            </Array>
            <mxPoint x="-465" y="200" as="sourcePoint" />
          </mxGeometry>
        </mxCell>
        <mxCell id="2Jf7o6wFnGI737Oco6ms-18" value="Ack" style="text;html=1;strokeColor=none;fillColor=none;align=center;verticalAlign=middle;whiteSpace=wrap;rounded=0;" vertex="1" parent="1">
          <mxGeometry x="-825" y="180" width="60" height="30" as="geometry" />
        </mxCell>
        <mxCell id="2Jf7o6wFnGI737Oco6ms-19" value="&lt;u&gt;Succesfull Creating Class&lt;/u&gt;" style="text;html=1;strokeColor=none;fillColor=none;align=center;verticalAlign=middle;whiteSpace=wrap;rounded=0;" vertex="1" parent="1">
          <mxGeometry x="-625" y="180" width="110" height="30" as="geometry" />
        </mxCell>
        <mxCell id="2Jf7o6wFnGI737Oco6ms-20" value="&lt;u&gt;Failed Creating Class&lt;/u&gt;" style="text;html=1;strokeColor=none;fillColor=none;align=center;verticalAlign=middle;whiteSpace=wrap;rounded=0;" vertex="1" parent="1">
          <mxGeometry x="-625" y="310" width="110" height="30" as="geometry" />
        </mxCell>
        <mxCell id="2Jf7o6wFnGI737Oco6ms-21" value="errorMsg" style="html=1;verticalAlign=bottom;endArrow=open;dashed=1;endSize=8;edgeStyle=elbowEdgeStyle;elbow=vertical;curved=0;rounded=0;" edge="1" parent="1">
          <mxGeometry relative="1" as="geometry">
            <mxPoint x="-425" y="340" as="targetPoint" />
            <Array as="points">
              <mxPoint x="-380" y="340" />
            </Array>
            <mxPoint x="-265" y="340" as="sourcePoint" />
          </mxGeometry>
        </mxCell>
        <mxCell id="2Jf7o6wFnGI737Oco6ms-22" value="errorMsg" style="html=1;verticalAlign=bottom;endArrow=open;dashed=1;endSize=8;edgeStyle=elbowEdgeStyle;elbow=vertical;curved=0;rounded=0;entryX=0.175;entryY=0.495;entryDx=0;entryDy=0;entryPerimeter=0;" edge="1" parent="1" target="2Jf7o6wFnGI737Oco6ms-4">
          <mxGeometry relative="1" as="geometry">
            <mxPoint x="-600" y="359.5" as="targetPoint" />
            <Array as="points">
              <mxPoint x="-555" y="359.5" />
            </Array>
            <mxPoint x="-440" y="359.5" as="sourcePoint" />
          </mxGeometry>
        </mxCell>
        <mxCell id="2Jf7o6wFnGI737Oco6ms-23" value="" style="rounded=0;whiteSpace=wrap;html=1;" vertex="1" parent="1">
          <mxGeometry x="-790" y="730" width="570" height="100" as="geometry" />
        </mxCell>
        <mxCell id="2Jf7o6wFnGI737Oco6ms-24" value="" style="rounded=0;whiteSpace=wrap;html=1;" vertex="1" parent="1">
          <mxGeometry x="-790" y="600" width="570" height="130" as="geometry" />
        </mxCell>
        <mxCell id="2Jf7o6wFnGI737Oco6ms-25" value="User" style="shape=umlLifeline;perimeter=lifelinePerimeter;whiteSpace=wrap;html=1;container=0;dropTarget=0;collapsible=0;recursiveResize=0;outlineConnect=0;portConstraint=eastwest;newEdgeStyle={&quot;edgeStyle&quot;:&quot;elbowEdgeStyle&quot;,&quot;elbow&quot;:&quot;vertical&quot;,&quot;curved&quot;:0,&quot;rounded&quot;:0};" vertex="1" parent="1">
          <mxGeometry x="-760" y="480" width="100" height="350" as="geometry" />
        </mxCell>
        <mxCell id="2Jf7o6wFnGI737Oco6ms-26" value="" style="html=1;points=[];perimeter=orthogonalPerimeter;outlineConnect=0;targetShapes=umlLifeline;portConstraint=eastwest;newEdgeStyle={&quot;edgeStyle&quot;:&quot;elbowEdgeStyle&quot;,&quot;elbow&quot;:&quot;vertical&quot;,&quot;curved&quot;:0,&quot;rounded&quot;:0};" vertex="1" parent="2Jf7o6wFnGI737Oco6ms-25">
          <mxGeometry x="45" y="70" width="15" height="240" as="geometry" />
        </mxCell>
        <mxCell id="2Jf7o6wFnGI737Oco6ms-27" value="server" style="shape=umlLifeline;perimeter=lifelinePerimeter;whiteSpace=wrap;html=1;container=0;dropTarget=0;collapsible=0;recursiveResize=0;outlineConnect=0;portConstraint=eastwest;newEdgeStyle={&quot;edgeStyle&quot;:&quot;elbowEdgeStyle&quot;,&quot;elbow&quot;:&quot;vertical&quot;,&quot;curved&quot;:0,&quot;rounded&quot;:0};" vertex="1" parent="1">
          <mxGeometry x="-460" y="480" width="100" height="340" as="geometry" />
        </mxCell>
        <mxCell id="2Jf7o6wFnGI737Oco6ms-28" value="" style="html=1;points=[];perimeter=orthogonalPerimeter;outlineConnect=0;targetShapes=umlLifeline;portConstraint=eastwest;newEdgeStyle={&quot;edgeStyle&quot;:&quot;elbowEdgeStyle&quot;,&quot;elbow&quot;:&quot;vertical&quot;,&quot;curved&quot;:0,&quot;rounded&quot;:0};" vertex="1" parent="2Jf7o6wFnGI737Oco6ms-27">
          <mxGeometry x="45" y="80" width="10" height="210" as="geometry" />
        </mxCell>
        <mxCell id="2Jf7o6wFnGI737Oco6ms-30" value="1. search(name/ID)" style="html=1;verticalAlign=bottom;endArrow=block;edgeStyle=elbowEdgeStyle;elbow=vertical;curved=0;rounded=0;" edge="1" parent="1" source="2Jf7o6wFnGI737Oco6ms-26" target="2Jf7o6wFnGI737Oco6ms-28">
          <mxGeometry relative="1" as="geometry">
            <mxPoint x="-605" y="570" as="sourcePoint" />
            <Array as="points">
              <mxPoint x="-620" y="560" />
            </Array>
          </mxGeometry>
        </mxCell>
        <mxCell id="2Jf7o6wFnGI737Oco6ms-31" value="class" style="html=1;verticalAlign=bottom;endArrow=open;dashed=1;endSize=8;edgeStyle=elbowEdgeStyle;elbow=vertical;curved=0;rounded=0;" edge="1" parent="1">
          <mxGeometry relative="1" as="geometry">
            <mxPoint x="-700" y="680" as="targetPoint" />
            <Array as="points">
              <mxPoint x="-605" y="680" />
            </Array>
            <mxPoint x="-410" y="680" as="sourcePoint" />
          </mxGeometry>
        </mxCell>
        <mxCell id="2Jf7o6wFnGI737Oco6ms-32" value="DB" style="shape=umlLifeline;perimeter=lifelinePerimeter;whiteSpace=wrap;html=1;container=0;dropTarget=0;collapsible=0;recursiveResize=0;outlineConnect=0;portConstraint=eastwest;newEdgeStyle={&quot;edgeStyle&quot;:&quot;elbowEdgeStyle&quot;,&quot;elbow&quot;:&quot;vertical&quot;,&quot;curved&quot;:0,&quot;rounded&quot;:0};" vertex="1" parent="1">
          <mxGeometry x="-290" y="480" width="100" height="360" as="geometry" />
        </mxCell>
        <mxCell id="2Jf7o6wFnGI737Oco6ms-33" value="" style="html=1;points=[];perimeter=orthogonalPerimeter;outlineConnect=0;targetShapes=umlLifeline;portConstraint=eastwest;newEdgeStyle={&quot;edgeStyle&quot;:&quot;elbowEdgeStyle&quot;,&quot;elbow&quot;:&quot;vertical&quot;,&quot;curved&quot;:0,&quot;rounded&quot;:0};" vertex="1" parent="2Jf7o6wFnGI737Oco6ms-32">
          <mxGeometry x="45" y="80" width="10" height="220" as="geometry" />
        </mxCell>
        <mxCell id="2Jf7o6wFnGI737Oco6ms-34" value="1. findClass(name/ID)" style="html=1;verticalAlign=bottom;endArrow=block;edgeStyle=elbowEdgeStyle;elbow=horizontal;curved=0;rounded=0;" edge="1" parent="1" source="2Jf7o6wFnGI737Oco6ms-27" target="2Jf7o6wFnGI737Oco6ms-33">
          <mxGeometry relative="1" as="geometry">
            <mxPoint x="-390" y="580" as="sourcePoint" />
            <Array as="points">
              <mxPoint x="-305" y="580" />
            </Array>
            <mxPoint x="-100" y="580" as="targetPoint" />
          </mxGeometry>
        </mxCell>
        <mxCell id="2Jf7o6wFnGI737Oco6ms-36" value="class" style="html=1;verticalAlign=bottom;endArrow=open;dashed=1;endSize=8;edgeStyle=elbowEdgeStyle;elbow=vertical;curved=0;rounded=0;" edge="1" parent="1">
          <mxGeometry relative="1" as="geometry">
            <mxPoint x="-405" y="649.3799999999998" as="targetPoint" />
            <Array as="points">
              <mxPoint x="-360" y="649.38" />
            </Array>
            <mxPoint x="-245" y="649.3799999999998" as="sourcePoint" />
          </mxGeometry>
        </mxCell>
        <mxCell id="2Jf7o6wFnGI737Oco6ms-37" value="Ack" style="text;html=1;strokeColor=none;fillColor=none;align=center;verticalAlign=middle;whiteSpace=wrap;rounded=0;" vertex="1" parent="1">
          <mxGeometry x="-800" y="600" width="60" height="30" as="geometry" />
        </mxCell>
        <mxCell id="2Jf7o6wFnGI737Oco6ms-38" value="&lt;u&gt;Succesfull Search&lt;/u&gt;" style="text;html=1;strokeColor=none;fillColor=none;align=center;verticalAlign=middle;whiteSpace=wrap;rounded=0;" vertex="1" parent="1">
          <mxGeometry x="-615" y="600" width="130" height="30" as="geometry" />
        </mxCell>
        <mxCell id="2Jf7o6wFnGI737Oco6ms-39" value="&lt;u&gt;Failed Search&lt;/u&gt;" style="text;html=1;strokeColor=none;fillColor=none;align=center;verticalAlign=middle;whiteSpace=wrap;rounded=0;" vertex="1" parent="1">
          <mxGeometry x="-600" y="730" width="110" height="30" as="geometry" />
        </mxCell>
        <mxCell id="2Jf7o6wFnGI737Oco6ms-40" value="errorMsg" style="html=1;verticalAlign=bottom;endArrow=open;dashed=1;endSize=8;edgeStyle=elbowEdgeStyle;elbow=vertical;curved=0;rounded=0;" edge="1" parent="1">
          <mxGeometry relative="1" as="geometry">
            <mxPoint x="-400" y="760" as="targetPoint" />
            <Array as="points">
              <mxPoint x="-355" y="760" />
            </Array>
            <mxPoint x="-240" y="760" as="sourcePoint" />
          </mxGeometry>
        </mxCell>
        <mxCell id="2Jf7o6wFnGI737Oco6ms-41" value="errorMsg" style="html=1;verticalAlign=bottom;endArrow=open;dashed=1;endSize=8;edgeStyle=elbowEdgeStyle;elbow=vertical;curved=0;rounded=0;entryX=0.175;entryY=0.495;entryDx=0;entryDy=0;entryPerimeter=0;" edge="1" parent="1" target="2Jf7o6wFnGI737Oco6ms-23">
          <mxGeometry relative="1" as="geometry">
            <mxPoint x="-575" y="779.5" as="targetPoint" />
            <Array as="points">
              <mxPoint x="-530" y="779.5" />
            </Array>
            <mxPoint x="-415" y="779.5" as="sourcePoint" />
          </mxGeometry>
        </mxCell>
        <mxCell id="2Jf7o6wFnGI737Oco6ms-43" value="joining a class" style="text;html=1;align=center;verticalAlign=middle;resizable=0;points=[];autosize=1;strokeColor=none;fillColor=none;" vertex="1" parent="1">
          <mxGeometry x="-800" y="1720" width="100" height="30" as="geometry" />
        </mxCell>
        <mxCell id="2Jf7o6wFnGI737Oco6ms-44" value="" style="rounded=0;whiteSpace=wrap;html=1;" vertex="1" parent="1">
          <mxGeometry x="-765" y="2015" width="570" height="100" as="geometry" />
        </mxCell>
        <mxCell id="2Jf7o6wFnGI737Oco6ms-45" value="" style="rounded=0;whiteSpace=wrap;html=1;" vertex="1" parent="1">
          <mxGeometry x="-765" y="1885" width="570" height="130" as="geometry" />
        </mxCell>
        <mxCell id="2Jf7o6wFnGI737Oco6ms-46" value="User" style="shape=umlLifeline;perimeter=lifelinePerimeter;whiteSpace=wrap;html=1;container=0;dropTarget=0;collapsible=0;recursiveResize=0;outlineConnect=0;portConstraint=eastwest;newEdgeStyle={&quot;edgeStyle&quot;:&quot;elbowEdgeStyle&quot;,&quot;elbow&quot;:&quot;vertical&quot;,&quot;curved&quot;:0,&quot;rounded&quot;:0};" vertex="1" parent="1">
          <mxGeometry x="-735" y="1765" width="100" height="350" as="geometry" />
        </mxCell>
        <mxCell id="2Jf7o6wFnGI737Oco6ms-47" value="" style="html=1;points=[];perimeter=orthogonalPerimeter;outlineConnect=0;targetShapes=umlLifeline;portConstraint=eastwest;newEdgeStyle={&quot;edgeStyle&quot;:&quot;elbowEdgeStyle&quot;,&quot;elbow&quot;:&quot;vertical&quot;,&quot;curved&quot;:0,&quot;rounded&quot;:0};" vertex="1" parent="2Jf7o6wFnGI737Oco6ms-46">
          <mxGeometry x="45" y="70" width="15" height="240" as="geometry" />
        </mxCell>
        <mxCell id="2Jf7o6wFnGI737Oco6ms-48" value="server" style="shape=umlLifeline;perimeter=lifelinePerimeter;whiteSpace=wrap;html=1;container=0;dropTarget=0;collapsible=0;recursiveResize=0;outlineConnect=0;portConstraint=eastwest;newEdgeStyle={&quot;edgeStyle&quot;:&quot;elbowEdgeStyle&quot;,&quot;elbow&quot;:&quot;vertical&quot;,&quot;curved&quot;:0,&quot;rounded&quot;:0};" vertex="1" parent="1">
          <mxGeometry x="-435" y="1765" width="100" height="340" as="geometry" />
        </mxCell>
        <mxCell id="2Jf7o6wFnGI737Oco6ms-49" value="" style="html=1;points=[];perimeter=orthogonalPerimeter;outlineConnect=0;targetShapes=umlLifeline;portConstraint=eastwest;newEdgeStyle={&quot;edgeStyle&quot;:&quot;elbowEdgeStyle&quot;,&quot;elbow&quot;:&quot;vertical&quot;,&quot;curved&quot;:0,&quot;rounded&quot;:0};" vertex="1" parent="2Jf7o6wFnGI737Oco6ms-48">
          <mxGeometry x="45" y="80" width="10" height="210" as="geometry" />
        </mxCell>
        <mxCell id="2Jf7o6wFnGI737Oco6ms-50" value="1. sendRequest(class)" style="html=1;verticalAlign=bottom;endArrow=block;edgeStyle=elbowEdgeStyle;elbow=vertical;curved=0;rounded=0;" edge="1" parent="1" source="2Jf7o6wFnGI737Oco6ms-47" target="2Jf7o6wFnGI737Oco6ms-49">
          <mxGeometry relative="1" as="geometry">
            <mxPoint x="-580" y="1855" as="sourcePoint" />
            <Array as="points">
              <mxPoint x="-595" y="1845" />
            </Array>
          </mxGeometry>
        </mxCell>
        <mxCell id="2Jf7o6wFnGI737Oco6ms-51" value="class" style="html=1;verticalAlign=bottom;endArrow=open;dashed=1;endSize=8;edgeStyle=elbowEdgeStyle;elbow=vertical;curved=0;rounded=0;" edge="1" parent="1">
          <mxGeometry relative="1" as="geometry">
            <mxPoint x="-675" y="1965" as="targetPoint" />
            <Array as="points">
              <mxPoint x="-580" y="1965" />
            </Array>
            <mxPoint x="-385" y="1965" as="sourcePoint" />
          </mxGeometry>
        </mxCell>
        <mxCell id="2Jf7o6wFnGI737Oco6ms-52" value="DB" style="shape=umlLifeline;perimeter=lifelinePerimeter;whiteSpace=wrap;html=1;container=0;dropTarget=0;collapsible=0;recursiveResize=0;outlineConnect=0;portConstraint=eastwest;newEdgeStyle={&quot;edgeStyle&quot;:&quot;elbowEdgeStyle&quot;,&quot;elbow&quot;:&quot;vertical&quot;,&quot;curved&quot;:0,&quot;rounded&quot;:0};" vertex="1" parent="1">
          <mxGeometry x="-265" y="1765" width="100" height="360" as="geometry" />
        </mxCell>
        <mxCell id="2Jf7o6wFnGI737Oco6ms-53" value="" style="html=1;points=[];perimeter=orthogonalPerimeter;outlineConnect=0;targetShapes=umlLifeline;portConstraint=eastwest;newEdgeStyle={&quot;edgeStyle&quot;:&quot;elbowEdgeStyle&quot;,&quot;elbow&quot;:&quot;vertical&quot;,&quot;curved&quot;:0,&quot;rounded&quot;:0};" vertex="1" parent="2Jf7o6wFnGI737Oco6ms-52">
          <mxGeometry x="45" y="80" width="10" height="220" as="geometry" />
        </mxCell>
        <mxCell id="2Jf7o6wFnGI737Oco6ms-54" value="1. findClass(name/ID)" style="html=1;verticalAlign=bottom;endArrow=block;edgeStyle=elbowEdgeStyle;elbow=horizontal;curved=0;rounded=0;" edge="1" parent="1" source="2Jf7o6wFnGI737Oco6ms-48" target="2Jf7o6wFnGI737Oco6ms-53">
          <mxGeometry relative="1" as="geometry">
            <mxPoint x="-365" y="1865" as="sourcePoint" />
            <Array as="points">
              <mxPoint x="-280" y="1865" />
            </Array>
            <mxPoint x="-75" y="1865" as="targetPoint" />
          </mxGeometry>
        </mxCell>
        <mxCell id="2Jf7o6wFnGI737Oco6ms-55" value="class" style="html=1;verticalAlign=bottom;endArrow=open;dashed=1;endSize=8;edgeStyle=elbowEdgeStyle;elbow=vertical;curved=0;rounded=0;" edge="1" parent="1">
          <mxGeometry relative="1" as="geometry">
            <mxPoint x="-380" y="1934.3799999999997" as="targetPoint" />
            <Array as="points">
              <mxPoint x="-335" y="1934.38" />
            </Array>
            <mxPoint x="-220" y="1934.3799999999997" as="sourcePoint" />
          </mxGeometry>
        </mxCell>
        <mxCell id="2Jf7o6wFnGI737Oco6ms-56" value="Ack" style="text;html=1;strokeColor=none;fillColor=none;align=center;verticalAlign=middle;whiteSpace=wrap;rounded=0;" vertex="1" parent="1">
          <mxGeometry x="-775" y="1885" width="60" height="30" as="geometry" />
        </mxCell>
        <mxCell id="2Jf7o6wFnGI737Oco6ms-57" value="&lt;u&gt;Succesfull Search&lt;/u&gt;" style="text;html=1;strokeColor=none;fillColor=none;align=center;verticalAlign=middle;whiteSpace=wrap;rounded=0;" vertex="1" parent="1">
          <mxGeometry x="-590" y="1885" width="130" height="30" as="geometry" />
        </mxCell>
        <mxCell id="2Jf7o6wFnGI737Oco6ms-58" value="&lt;u&gt;Failed Search&lt;/u&gt;" style="text;html=1;strokeColor=none;fillColor=none;align=center;verticalAlign=middle;whiteSpace=wrap;rounded=0;" vertex="1" parent="1">
          <mxGeometry x="-575" y="2015" width="110" height="30" as="geometry" />
        </mxCell>
        <mxCell id="2Jf7o6wFnGI737Oco6ms-59" value="errorMsg" style="html=1;verticalAlign=bottom;endArrow=open;dashed=1;endSize=8;edgeStyle=elbowEdgeStyle;elbow=vertical;curved=0;rounded=0;" edge="1" parent="1">
          <mxGeometry relative="1" as="geometry">
            <mxPoint x="-375" y="2045" as="targetPoint" />
            <Array as="points">
              <mxPoint x="-330" y="2045" />
            </Array>
            <mxPoint x="-215" y="2045" as="sourcePoint" />
          </mxGeometry>
        </mxCell>
        <mxCell id="2Jf7o6wFnGI737Oco6ms-60" value="errorMsg" style="html=1;verticalAlign=bottom;endArrow=open;dashed=1;endSize=8;edgeStyle=elbowEdgeStyle;elbow=vertical;curved=0;rounded=0;entryX=0.175;entryY=0.495;entryDx=0;entryDy=0;entryPerimeter=0;" edge="1" parent="1" target="2Jf7o6wFnGI737Oco6ms-44">
          <mxGeometry relative="1" as="geometry">
            <mxPoint x="-550" y="2064.5" as="targetPoint" />
            <Array as="points">
              <mxPoint x="-505" y="2064.5" />
            </Array>
            <mxPoint x="-390" y="2064.5" as="sourcePoint" />
          </mxGeometry>
        </mxCell>
        <mxCell id="2Jf7o6wFnGI737Oco6ms-63" value="handling a request" style="text;html=1;align=center;verticalAlign=middle;resizable=0;points=[];autosize=1;strokeColor=none;fillColor=none;" vertex="1" parent="1">
          <mxGeometry x="-845" y="888" width="120" height="30" as="geometry" />
        </mxCell>
        <mxCell id="2Jf7o6wFnGI737Oco6ms-81" value="Student" style="shape=umlLifeline;perimeter=lifelinePerimeter;whiteSpace=wrap;html=1;container=0;dropTarget=0;collapsible=0;recursiveResize=0;outlineConnect=0;portConstraint=eastwest;newEdgeStyle={&quot;edgeStyle&quot;:&quot;elbowEdgeStyle&quot;,&quot;elbow&quot;:&quot;vertical&quot;,&quot;curved&quot;:0,&quot;rounded&quot;:0};" vertex="1" parent="1">
          <mxGeometry x="-770" y="915" width="100" height="340" as="geometry" />
        </mxCell>
        <mxCell id="2Jf7o6wFnGI737Oco6ms-82" value="" style="html=1;points=[];perimeter=orthogonalPerimeter;outlineConnect=0;targetShapes=umlLifeline;portConstraint=eastwest;newEdgeStyle={&quot;edgeStyle&quot;:&quot;elbowEdgeStyle&quot;,&quot;elbow&quot;:&quot;vertical&quot;,&quot;curved&quot;:0,&quot;rounded&quot;:0};" vertex="1" parent="2Jf7o6wFnGI737Oco6ms-81">
          <mxGeometry x="45" y="70" width="15" height="240" as="geometry" />
        </mxCell>
        <mxCell id="2Jf7o6wFnGI737Oco6ms-83" value="System" style="shape=umlLifeline;perimeter=lifelinePerimeter;whiteSpace=wrap;html=1;container=0;dropTarget=0;collapsible=0;recursiveResize=0;outlineConnect=0;portConstraint=eastwest;newEdgeStyle={&quot;edgeStyle&quot;:&quot;elbowEdgeStyle&quot;,&quot;elbow&quot;:&quot;vertical&quot;,&quot;curved&quot;:0,&quot;rounded&quot;:0};" vertex="1" parent="1">
          <mxGeometry x="-490" y="915" width="100" height="310" as="geometry" />
        </mxCell>
        <mxCell id="2Jf7o6wFnGI737Oco6ms-84" value="" style="html=1;points=[];perimeter=orthogonalPerimeter;outlineConnect=0;targetShapes=umlLifeline;portConstraint=eastwest;newEdgeStyle={&quot;edgeStyle&quot;:&quot;elbowEdgeStyle&quot;,&quot;elbow&quot;:&quot;vertical&quot;,&quot;curved&quot;:0,&quot;rounded&quot;:0};" vertex="1" parent="2Jf7o6wFnGI737Oco6ms-83">
          <mxGeometry x="45" y="70" width="15" height="210" as="geometry" />
        </mxCell>
        <mxCell id="2Jf7o6wFnGI737Oco6ms-96" value="" style="endArrow=classic;html=1;rounded=0;" edge="1" parent="2Jf7o6wFnGI737Oco6ms-83" source="2Jf7o6wFnGI737Oco6ms-84" target="2Jf7o6wFnGI737Oco6ms-84">
          <mxGeometry width="50" height="50" relative="1" as="geometry">
            <mxPoint x="65" y="215" as="sourcePoint" />
            <mxPoint x="110" y="275" as="targetPoint" />
            <Array as="points">
              <mxPoint x="110" y="215" />
              <mxPoint x="110" y="235" />
              <mxPoint x="90" y="235" />
            </Array>
          </mxGeometry>
        </mxCell>
        <mxCell id="2Jf7o6wFnGI737Oco6ms-85" value="GetRequests" style="html=1;verticalAlign=bottom;endArrow=block;curved=0;rounded=0;" edge="1" parent="1" target="2Jf7o6wFnGI737Oco6ms-83">
          <mxGeometry width="80" relative="1" as="geometry">
            <mxPoint x="-720" y="1015" as="sourcePoint" />
            <mxPoint x="-524.5" y="1015" as="targetPoint" />
          </mxGeometry>
        </mxCell>
        <mxCell id="2Jf7o6wFnGI737Oco6ms-86" value="RequestsList" style="html=1;verticalAlign=bottom;endArrow=open;dashed=1;endSize=8;curved=0;rounded=0;" edge="1" parent="1">
          <mxGeometry relative="1" as="geometry">
            <mxPoint x="-445.5" y="1084.3800000000003" as="sourcePoint" />
            <mxPoint x="-715" y="1084.38" as="targetPoint" />
          </mxGeometry>
        </mxCell>
        <mxCell id="2Jf7o6wFnGI737Oco6ms-87" value="AnswerRequest(reqID, answer)" style="html=1;verticalAlign=bottom;endArrow=block;curved=0;rounded=0;" edge="1" parent="1">
          <mxGeometry width="80" relative="1" as="geometry">
            <mxPoint x="-715" y="1120" as="sourcePoint" />
            <mxPoint x="-445.5" y="1120.0000000000002" as="targetPoint" />
          </mxGeometry>
        </mxCell>
        <mxCell id="2Jf7o6wFnGI737Oco6ms-88" value="GetRequests" style="html=1;verticalAlign=bottom;endArrow=block;curved=0;rounded=0;" edge="1" parent="1">
          <mxGeometry x="0.0062" width="80" relative="1" as="geometry">
            <mxPoint x="-435" y="1040" as="sourcePoint" />
            <mxPoint x="-225.5" y="1040.0000000000002" as="targetPoint" />
            <mxPoint as="offset" />
          </mxGeometry>
        </mxCell>
        <mxCell id="2Jf7o6wFnGI737Oco6ms-90" value="DB" style="shape=umlLifeline;perimeter=lifelinePerimeter;whiteSpace=wrap;html=1;container=0;dropTarget=0;collapsible=0;recursiveResize=0;outlineConnect=0;portConstraint=eastwest;newEdgeStyle={&quot;edgeStyle&quot;:&quot;elbowEdgeStyle&quot;,&quot;elbow&quot;:&quot;vertical&quot;,&quot;curved&quot;:0,&quot;rounded&quot;:0};" vertex="1" parent="1">
          <mxGeometry x="-280" y="915" width="100" height="360" as="geometry" />
        </mxCell>
        <mxCell id="2Jf7o6wFnGI737Oco6ms-91" value="" style="html=1;points=[];perimeter=orthogonalPerimeter;outlineConnect=0;targetShapes=umlLifeline;portConstraint=eastwest;newEdgeStyle={&quot;edgeStyle&quot;:&quot;elbowEdgeStyle&quot;,&quot;elbow&quot;:&quot;vertical&quot;,&quot;curved&quot;:0,&quot;rounded&quot;:0};" vertex="1" parent="2Jf7o6wFnGI737Oco6ms-90">
          <mxGeometry x="45" y="80" width="10" height="220" as="geometry" />
        </mxCell>
        <mxCell id="2Jf7o6wFnGI737Oco6ms-92" value="RequestsList" style="html=1;verticalAlign=bottom;endArrow=open;dashed=1;endSize=8;curved=0;rounded=0;" edge="1" parent="1">
          <mxGeometry relative="1" as="geometry">
            <mxPoint x="-235.5" y="1069.38" as="sourcePoint" />
            <mxPoint x="-435" y="1069.38" as="targetPoint" />
          </mxGeometry>
        </mxCell>
        <mxCell id="2Jf7o6wFnGI737Oco6ms-97" value="sendAnswerToUser" style="text;html=1;align=center;verticalAlign=middle;resizable=0;points=[];autosize=1;strokeColor=none;fillColor=none;" vertex="1" parent="1">
          <mxGeometry x="-390" y="1130" width="130" height="30" as="geometry" />
        </mxCell>
      </root>
    </mxGraphModel>
  </diagram>
</mxfile>
